<svg id="Layer_2" xmlns="http://www.w3.org/2000/svg" viewBox="0 0 146 146">
    <defs>
        <style>
            .cls-1 {
                fill: #fff;
            }

            .cls-2 {
                fill: #111827;
            }
        </style>
    </defs>
    <g id="variants">
        <g id="variant_1">
            <!-- rx="28.93" ry="28.93" -->
            <rect class="cls-1" width="146" height="146" rx="99999" ry="99999" />
            <g id="Layer_20">
                <path class="cls-2"
                    d="M80.52,47.83h-11.1c-.97,0-1.76-.79-1.76-1.76v-11.1c0-.47,.19-.92,.52-1.25l8.82-8.81c1.81-1.81,4.22-2.81,6.79-2.81s4.98,1,6.79,2.81c3.74,3.74,3.74,9.83,0,13.58l-8.8,8.83c-.33,.33-.78,.52-1.25,.52Zm-9.34-3.52h8.61l8.29-8.31h0c1.15-1.15,1.78-2.68,1.78-4.3s-.63-3.15-1.78-4.3c-1.15-1.15-2.67-1.78-4.3-1.78s-3.15,.63-4.3,1.78l-8.3,8.3v8.61Z" />
                <path class="cls-2"
                    d="M65.5,51.74c-.45,0-.9-.17-1.25-.52-.69-.69-.69-1.8,0-2.49l18.28-18.28c.69-.69,1.8-.69,2.49,0,.69,.69,.69,1.8,0,2.49l-18.28,18.28c-.34,.34-.79,.52-1.25,.52Z" />
                <path class="cls-2"
                    d="M85.74,42.6h-11.1c-.97,0-1.76-.79-1.76-1.76s.79-1.76,1.76-1.76h11.1c.97,0,1.76,.79,1.76,1.76s-.79,1.76-1.76,1.76Z" />
                <g>
                    <rect id="head_shape" class="cls-1" x="17.92" y="45.28" width="106.58" height="67.24" rx="33.62"
                        ry="33.62" />
                    <path id="head_shape-2" class="cls-2"
                        d="M90.88,51.15c15.3,0,27.75,12.45,27.75,27.75s-12.45,27.75-27.75,27.75H51.53c-15.3,0-27.75-12.45-27.75-27.75s12.45-27.75,27.75-27.75h39.35m0-5.87H51.53c-18.57,0-33.62,15.05-33.62,33.62h0c0,18.57,15.05,33.62,33.62,33.62h39.35c18.57,0,33.62-15.05,33.62-33.62h0c0-18.57-15.05-33.62-33.62-33.62h0Z" />
                </g>
                <path id="nose" class="cls-2"
                    d="M73.55,98.37l7.92,7.92c2.22,2.22,.62,6-2.51,5.97l-7.88-.08-7.88,.08c-3.13,.03-4.73-3.76-2.51-5.97l7.92-7.92c1.37-1.37,3.58-1.37,4.95,0Z" />
                <g id="right_eye">
                    <circle class="cls-2" cx="91.03" cy="78.75" r="11.74" />
                </g>
                <g id="left_eye">
                    <circle class="cls-2" cx="51.39" cy="78.75" r="11.74" />
                </g>
            </g>
        </g>
    </g>
</svg>
