<svg class="logo" xmlns="http://www.w3.org/2000/svg" xmlns:xlink="http://www.w3.org/1999/xlink" viewBox="0 0 700 700" aria-hidden="true">
    <style>
        .logo .cls-1 {
            fill: oklch(.197 .019 275.455);
        }
        .logo .cls-2,
        .logo .cls-3 {
            fill: oklch(.97 .056 275.455);
        }
    </style>

    <defs>
        <linearGradient id="linear-gradient" x1="546.96" y1="125.54" x2="546.96" y2="294.36"
            gradientUnits="userSpaceOnUse">
            <stop offset="0" stop-color="#fff"></stop>
            <stop offset=".42" stop-color="#fdfdff"></stop>
            <stop offset=".57" stop-color="#f6f7ff"></stop>
            <stop offset=".67" stop-color="#eaecff"></stop>
            <stop offset=".76" stop-color="#d9dcff"></stop>
            <stop offset=".83" stop-color="#c3c8ff"></stop>
            <stop offset=".9" stop-color="#a8afff"></stop>
            <stop offset=".96" stop-color="#8892ff"></stop>
            <stop offset="1" stop-color="#6d79ff"></stop>
        </linearGradient>
        <filter id="drop-shadow-1" filterUnits="userSpaceOnUse">
            <feOffset dx="5" dy="5"></feOffset>
            <feGaussianBlur result="blur" stdDeviation="5"></feGaussianBlur>
            <feFlood flood-color="#6d79ff" flood-opacity=".5"></feFlood>
            <feComposite in2="blur" operator="in"></feComposite>
            <feComposite in="SourceGraphic"></feComposite>
        </filter>
        <linearGradient id="linear-gradient-2" x1="251.94" y1="248.84" x2="618.56" y2="883.83"
            xlink:href="#linear-gradient"></linearGradient>
        <filter id="drop-shadow-2" filterUnits="userSpaceOnUse">
            <feOffset dx="5" dy="5"></feOffset>
            <feGaussianBlur result="blur-2" stdDeviation="5"></feGaussianBlur>
            <feFlood flood-color="#6d79ff" flood-opacity=".5"></feFlood>
            <feComposite in2="blur-2" operator="in"></feComposite>
            <feComposite in="SourceGraphic"></feComposite>
        </filter>
    </defs>
    <g id="icon">
        <!-- <path id="outline_outer" class="cls-1"
            d="m694.92,267.77c-.46-2.6-.96-5.19-1.49-7.77-.01-.07-.03-.14-.04-.2-2.17-10.59-4.85-20.99-8.02-31.18-.79-2.55-1.61-5.08-2.47-7.6-.11-.34-.24-.67-.36-1.01-4.19-12.24-9.07-24.16-14.63-35.69-1.14-2.37-2.31-4.73-3.51-7.06-3.59-7.02-7.43-13.88-11.51-20.59s-8.39-13.26-12.92-19.64c-3.02-4.25-6.15-8.43-9.37-12.53-3.22-4.1-6.54-8.12-9.95-12.05-8.52-9.84-17.63-19.16-27.26-27.91-3.85-3.5-7.79-6.91-11.81-10.23-2.01-1.66-4.04-3.29-6.09-4.9-18.44-14.49-38.48-27.03-59.82-37.31-19.55-9.42-40.2-16.93-61.69-22.32-13.04-3.27-26.39-5.75-40-7.39-12.91-1.56-26.04-2.38-39.37-2.38h-179.78c-12.04,0-23.82,1.1-35.26,3.19-2.94.54-5.85,1.13-8.74,1.8-3.14.73-6.26,1.53-9.34,2.4-5.21,1.48-10.32,3.18-15.35,5.07-1.8.68-3.59,1.38-5.36,2.11-1.04.43-2.08.87-3.12,1.31-2.46,1.06-4.9,2.16-7.31,3.32-2.84,1.37-5.64,2.8-8.4,4.3-1.38.75-2.75,1.52-4.11,2.3-2.72,1.56-5.4,3.19-8.03,4.88-1.32.84-2.62,1.71-3.92,2.58-2.05,1.38-4.05,2.81-6.04,4.27-1.79,1.31-3.57,2.64-5.31,4.01-4.91,3.86-9.63,7.94-14.14,12.25-2.26,2.15-4.46,4.36-6.61,6.61-2.15,2.26-4.25,4.56-6.29,6.92-3.06,3.54-6,7.18-8.8,10.93-.94,1.25-1.86,2.51-2.76,3.79-1.81,2.55-3.56,5.14-5.25,7.77-.84,1.32-1.67,2.65-2.49,3.99-2.44,4.02-4.74,8.13-6.89,12.33-2.15,4.2-4.16,8.49-6,12.86-2.46,5.83-4.65,11.8-6.55,17.9-.95,3.05-1.82,6.13-2.63,9.25-1.2,4.67-2.23,9.41-3.09,14.2-2,11.2-3.04,22.72-3.04,34.49v310.3c0,8.41.53,16.69,1.57,24.82,1.45,11.38,3.87,22.45,7.19,33.13,4.74,15.25,11.31,29.7,19.45,43.09.81,1.34,1.64,2.67,2.49,3.99,5.07,7.91,10.69,15.42,16.82,22.49,2.04,2.36,4.14,4.66,6.29,6.92,2.15,2.26,4.36,4.46,6.61,6.61,4.51,4.3,9.23,8.39,14.14,12.25,1.74,1.37,3.52,2.7,5.31,4.01,3.25,2.38,6.57,4.67,9.96,6.85,6.59,4.22,13.45,8.06,20.55,11.48,2.41,1.16,4.85,2.26,7.31,3.32,1.03.45,2.07.88,3.12,1.31,1.77.73,3.56,1.43,5.36,2.11,5.02,1.89,10.14,3.6,15.35,5.07,3.08.88,6.2,1.68,9.34,2.4,2.89.67,5.81,1.26,8.74,1.8,11.44,2.09,23.22,3.19,35.26,3.19h310.3c11.77,0,23.3-1.04,34.49-3.04,4.8-.86,9.53-1.89,14.2-3.09,3.11-.8,6.2-1.68,9.25-2.63s6.07-1.97,9.05-3.06c2.98-1.09,5.93-2.26,8.85-3.49,10.2-4.31,19.95-9.47,29.18-15.38,3.95-2.53,7.81-5.21,11.56-8.01,6.25-4.68,12.21-9.72,17.85-15.09,2.26-2.15,4.46-4.36,6.61-6.61,8.6-9.02,16.35-18.87,23.11-29.41,9.29-14.49,16.72-30.3,21.94-47.08,3.32-10.68,5.75-21.75,7.19-33.13,1.03-8.13,1.57-16.41,1.57-24.82v-179.78c0-19.65-1.74-38.9-5.08-57.6Zm-42.43-7.77c-.45-1.91-.92-3.82-1.41-5.72-.12-.49-.26-.97-.38-1.46-.08-.29-.16-.59-.24-.88.71,2.68,1.4,5.36,2.03,8.06Zm-2.98-11.57c-.13-.47-.26-.93-.4-1.39.13.46.27.93.4,1.39Zm-3.86-12.66c.72,2.19,1.41,4.38,2.08,6.58-.1-.32-.19-.64-.29-.96-.58-1.88-1.17-3.75-1.79-5.62,0,0,0,0,0,0h0c-.88-2.65-1.79-5.29-2.75-7.92.95,2.63,1.87,5.27,2.75,7.92ZM485.7,62.41c33.98,14.37,64.5,34.95,90.72,61.17,26.22,26.22,46.8,56.74,61.17,90.72.8,1.89,1.57,3.79,2.33,5.7h-102.4c-46.05,0-83.52-37.47-83.52-83.52V51.18c-2.13-.62-4.27-1.2-6.41-1.76,2.14.56,4.28,1.14,6.41,1.76,10.74,3.11,21.32,6.84,31.7,11.23Zm-47.22-15.23c-1.78-.41-3.56-.79-5.35-1.16.57.12,1.14.23,1.71.35,1.22.26,2.43.54,3.64.81Zm7.38,1.79c-2.08-.53-4.16-1.05-6.25-1.54,2.09.49,4.17,1,6.25,1.54Zm-14.82-3.38c-2.15-.43-4.31-.85-6.47-1.23,2.16.38,4.32.8,6.47,1.23Zm-6.49-1.23s-.07-.01-.1-.02c.03,0,.07.01.1.02Zm-4.8-.8c-.18-.03-.36-.06-.54-.09.18.03.36.06.54.09Zm240.25,461.6c0,41.36-16.11,80.25-45.35,109.5s-68.13,45.35-109.5,45.35H194.85c-41.36,0-80.25-16.11-109.5-45.35s-45.35-68.13-45.35-109.5V194.85c0-41.36,16.11-80.25,45.35-109.5,29.25-29.25,68.13-45.35,109.5-45.35h179.78c.29,0,.59,0,.88,0,0,0,0,0,0,0,21.08.29,38.05,17.42,38.47,38.48,0,0,.01,0,.02,0v58c0,68.22,55.3,123.52,123.52,123.52h84.99s-.02.09-.03.13c18.57,1.47,33.77,15.88,35.9,34.65,1.07,10.1,1.62,20.3,1.62,30.59v179.78Z">
        </path> -->
        <path id="arc_inner" class="cls-2"
            d="m576.42,123.58c-26.22-26.22-56.74-46.8-90.72-61.17-10.38-4.39-20.96-8.12-31.7-11.23v85.3c0,46.05,37.47,83.52,83.52,83.52h102.4c-.76-1.9-1.53-3.81-2.33-5.7-14.37-33.98-34.95-64.5-61.17-90.72Z">
        </path>
        <path id="outline_inner" class="cls-3"
            d="m658.45,295.42c-.01-.1-.02-.21-.03-.32-1.99-18.92-17.26-33.49-35.94-34.97-1.03-.08-2.07-.13-3.12-.13h-81.48c-68.42,0-123.88-55.46-123.88-123.88v-56.84c0-.26-.01-.52-.02-.78-.41-21.05-17.38-38.19-38.47-38.48-.16,0-.32-.01-.48-.01-.13,0-.27,0-.4,0h-177.92c-45.41,0-89,19.1-118.82,53.35-24.51,28.16-37.89,63.8-37.89,101.5v308.44c0,45.41,19.1,89,53.35,118.82,28.16,24.51,63.8,37.89,101.5,37.89h308.44c45.41,0,89-19.1,118.82-53.35,24.51-28.16,37.89-63.8,37.89-101.5v-179.78c0-10.07-.52-20.06-1.55-29.95Z">
        </path>
        <g id="eye_right">
            <circle class="cls-1" cx="458.5" cy="555.5" r="44.5"></circle>
        </g>
        <g id="eye_left">
            <circle class="cls-1" cx="241.5" cy="555.5" r="44.5"></circle>
        </g>
    </g>
</svg>
